PathFileType	4	(X/Y/Z)	./resultDataOpenSim/trcMotMarkerGrf/sub09/qtm-15-01.trc
DataRate	CameraRate	NumFrames	NumMarkers	Units	OrigDataRate	OrigDataStartFrame	OrigNumFrames
250.000000	250.000000	7	24	m	250.000000	255	508
Frame#	Time	L.Toe.Tip			R.Toe.Tip			L.Ankle.Lat			R.Ankle.Lat			L.Ankle.Med			R.Ankle.Med			L.Heel			R.Heel			L.Knee.Lat			R.Knee.Lat			L.Knee.Med			R.Knee.Med			L.Thigh.Upper			R.Thigh.Upper			L.ASIS			R.ASIS			V.Sacral			L.Acromium			R.Acromium			C7			L.Elbow			R.Elbow			L.Wrist.Lat			R.Wrist.Lat
		X1	Y1	Z1	X2	Y2	Z2	X3	Y3	Z3	X4	Y4	Z4	X5	Y5	Z5	X6	Y6	Z6	X7	Y7	Z7	X8	Y8	Z8	X9	Y9	Z9	X10	Y10	Z10	X11	Y11	Z11	X12	Y12	Z12	X13	Y13	Z13	X14	Y14	Z14	X15	Y15	Z15	X16	Y16	Z16	X17	Y17	Z17	X18	Y18	Z18	X19	Y19	Z19	X20	Y20	Z20	X21	Y21	Z21	X22	Y22	Z22	X23	Y23	Z23	X24	Y24	Z24

255	1.016	0.19793803	-0.057885365	0.0064861045	0.59635416	0.13846344	0.087708464	0.062226132	-0.0023142759	-0.058105501	0.44936497	0.14036035	0.10681893	0.078403881	0.014617018	0.040240438	0.4716412	0.17996953	0.015590033	-0.017285911	-0.023787539	-0.014621276	0.38721682	0.11090681	0.051046182	0.20971474	0.38800057	-0.11237024	0.55489641	0.57028622	0.1654747	0.20080275	0.39331558	0.012641557	0.55611516	0.56159677	0.04149956	0.24329061	0.80843312	-0.17092202	0.2483107	0.83684191	0.20383124	0.33904546	0.88872186	-0.11366649	0.32336138	0.9154995	0.12787239	0.17024951	0.9662484	-0.0053539647	0.38815381	1.3442036	-0.15959047	0.31642672	1.3694994	0.16219113	0.28651709	1.4091489	-0.014410168	0.2555134	1.0029875	-0.25138009	0.1215459	1.0685396	0.24018458	0.43038877	0.80139211	-0.2697583	0.1864392	0.81092164	0.29723856
256	1.02	0.19810069	-0.057804339	0.0062769648	0.61637418	0.13931625	0.086956589	0.062694917	-0.0011996785	-0.058172574	0.46916753	0.13703006	0.10519034	0.079106148	0.01557356	0.040090146	0.49085172	0.17726942	0.014125178	-0.016792504	-0.022133173	-0.01468624	0.40841733	0.10579838	0.049043284	0.21101979	0.38884927	-0.11262898	0.56120131	0.57110752	0.16469264	0.20264881	0.39406124	0.012342644	0.56245973	0.56183948	0.040767101	0.24798891	0.80883526	-0.17086241	0.25451891	0.83755569	0.20400356	0.34449083	0.88866454	-0.11389217	0.32963667	0.91585369	0.12765598	0.17708732	0.96661371	-0.0053485775	0.39474693	1.3443968	-0.15970439	0.32376792	1.369618	0.16218124	0.29350731	1.4094458	-0.014359463	0.26164587	1.0031296	-0.25129181	0.12813606	1.069316	0.24028078	0.43728905	0.80211714	-0.26914773	0.19173316	0.81125564	0.29663849
257	1.024	0.19825576	-0.057846446	0.0063258023	0.63614643	0.14015435	0.08621708	0.063189742	-8.9392988e-05	-0.058238947	0.48897781	0.13385802	0.10348535	0.079816429	0.016535364	0.039938781	0.50998278	0.17479703	0.012638664	-0.016281781	-0.020461311	-0.014738464	0.42956546	0.10108244	0.046926138	0.2122867	0.38971771	-0.11284914	0.56736319	0.57168796	0.16393842	0.20453286	0.3947752	0.012072367	0.56871128	0.56182485	0.040064029	0.25259688	0.80923712	-0.17083611	0.26078771	0.83823688	0.20417003	0.34994973	0.88861448	-0.1141549	0.33595749	0.91614704	0.12740652	0.18385854	0.96695733	-0.0052980592	0.40133068	1.3445512	-0.15983182	0.33112104	1.3697015	0.16217121	0.3004382	1.4097039	-0.014209116	0.26776938	1.0032332	-0.25122009	0.13474149	1.0700402	0.24035505	0.44414089	0.80278749	-0.26855317	0.19708495	0.81157808	0.29608193
258	1.028	0.19840475	-0.057976834	0.0065674057	0.65569877	0.1409237	0.085440178	0.063683273	0.0010356677	-0.058293761	0.50878526	0.13085116	0.10175115	0.080528599	0.017518843	0.039821016	0.52900157	0.17254688	0.011127231	-0.015751662	-0.018770634	-0.014759427	0.45061949	0.096768047	0.044678703	0.21352164	0.39060399	-0.11305311	0.57338546	0.57202504	0.16320726	0.2065029	0.39551389	0.011896095	0.57487521	0.56159079	0.039383996	0.25714666	0.80963062	-0.17078862	0.2671225	0.8388683	0.20432624	0.35541898	0.88856833	-0.11445512	0.3423417	0.91637606	0.12712414	0.19053482	0.96728654	-0.00519156	0.40791098	1.3446659	-0.15996328	0.3384575	1.3697605	0.16216733	0.30737738	1.409926	-0.01407829	0.2738744	1.003297	-0.25114769	0.14136079	1.0707092	0.24041209	0.45098165	0.80341053	-0.26793695	0.20249761	0.81189002	0.29557392
259	1.032	0.19855971	-0.058100307	0.0068097947	0.67505015	0.14159878	0.084603	0.064164206	0.0021814504	-0.058326405	0.52837002	0.12813772	0.1000827	0.081254349	0.018528781	0.039748757	0.54787894	0.17051348	0.0096039324	-0.015203764	-0.017064365	-0.014732869	0.47148661	0.092856804	0.04236003	0.21476498	0.39149854	-0.11327467	0.57928476	0.57212577	0.16250032	0.2086247	0.39633087	0.011850249	0.58098931	0.56117746	0.038708818	0.26167727	0.81001671	-0.17069017	0.27353279	0.83943099	0.20446932	0.36090269	0.88851911	-0.11479133	0.34880374	0.91654026	0.12681332	0.19709141	0.96760653	-0.0050202684	0.41449324	1.3447393	-0.16009899	0.34577053	1.3697975	0.16216752	0.31438493	1.4101052	-0.014062955	0.2799599	1.0033209	-0.25105213	0.14798209	1.0713357	0.24047092	0.45782672	0.80398507	-0.2672844	0.20797123	0.81218714	0.29511449
260	1.036	0.198734	-0.058138079	0.0068890996	0.69418912	0.14218783	0.083694727	0.064641917	0.0033445727	-0.058324702	0.54740406	0.12589181	0.098568939	0.08200558	0.019559102	0.039714722	0.56658084	0.16870082	0.0080922809	-0.014636525	-0.015345295	-0.014648781	0.49204859	0.089341078	0.040083254	0.21606789	0.39239133	-0.1135229	0.58509382	0.57200599	0.16182869	0.21086588	0.39722768	0.01190384	0.587077	0.56061592	0.038031721	0.2662146	0.8104021	-0.1705337	0.28003432	0.83991119	0.20460221	0.36641131	0.8884565	-0.11516261	0.3553474	0.91663976	0.12647832	0.20351892	0.96791517	-0.0047826028	0.42107988	1.3447703	-0.16024867	0.35307431	1.3698067	0.16216833	0.32145165	1.4102297	-0.014136101	0.28603223	1.0033049	-0.25092351	0.15457351	1.0719546	0.24056461	0.46466768	0.80450454	-0.26661158	0.21350493	0.81246407	0.29470032
261	1.04	0.19893237	-0.058068887	0.0067559895	0.71308037	0.14273293	0.082702933	0.0651307	0.0045208923	-0.058284211	0.56576428	0.12415634	0.09720743	0.082787316	0.020600942	0.039707855	0.58507397	0.16711514	0.0065978961	-0.014044108	-0.013610575	-0.014510375	0.51223916	0.08620561	0.037926699	0.21745908	0.39327887	-0.11377976	0.5908433	0.57167936	0.16119937	0.21312181	0.39816131	0.011940434	0.59313306	0.55992616	0.037358871	0.2707685	0.8107977	-0.17033868	0.2866336	0.84030175	0.20472718	0.37195284	0.88837289	-0.11557331	0.36196867	0.91667421	0.1261208	0.20983453	0.96819912	-0.0044881069	0.42766903	1.3447582	-0.16041655	0.36038151	1.3697821	0.16216945	0.32851301	1.4103	-0.014187202	0.292103	1.0032485	-0.25076866	0.1610974	1.0726051	0.24072433	0.47149391	0.80496728	-0.26593556	0.21909526	0.81271509	0.29432718
